PathFileType	4	(X/Y/Z)	C:\Users\WrightLab\Desktop\Jo\P1.2Trial10.trc
DataRate	CameraRate	NumFrames	NumMarkers	Units	OrigDataRate	OrigDataStartFrame	OrigNumFrames
100.00	100.00	       68	19	mm	100.00	472	       539
Frame#	Time	Headset_Front			Headset_Back			Headset_Left			Headset_Right			Left_Shoulder			Right_Shoulder			Sternum			C7			Left Elbow			Right Elbow			Left Wrist			Right Wrist			Left ASIS			Right ASIS			S2			Left Knee			Right Knee			Left Ankle			Right Ankle			
		X1	Y1	Z1	X2	Y2	Z2	X3	Y3	Z3	X4	Y4	Z4	X5	Y5	Z5	X6	Y6	Z6	X7	Y7	Z7	X8	Y8	Z8	X9	Y9	Z9	X10	Y10	Z10	X11	Y11	Z11	X12	Y12	Z12	X13	Y13	Z13	X14	Y14	Z14	X15	Y15	Z15	X16	Y16	Z16	X17	Y17	Z17	X18	Y18	Z18	X19	Y19	Z19	

472	4.710																																		-417.19342	781.69849	1972.89856																						
473	4.720																																		-398.63107	781.85455	1974.60681																						
474	4.730																																		-379.79565	782.18842	1977.51245																						
475	4.740																																		-361.18457	783.43677	1982.68982																						
476	4.750																																		-340.34421	786.17725	1984.08606																						
477	4.760																																		-323.30655	789.14648	1991.25378																						
478	4.770																																		-305.43665	792.71350	1998.23450																						
479	4.780																																		-287.50821	797.25970	2007.55066																						
480	4.790																																		-270.67575	801.64349	2015.82239																						
481	4.800																																		-253.89685	806.51514	2026.01819																						
482	4.810																																		-237.91103	811.26514	2037.27710																						
483	4.820																																		-222.86156	816.29108	2049.91504																						
484	4.830																																		-207.92155	820.19073	2065.04639																						
485	4.840																																		-195.51625	825.07190	2078.29321																						
486	4.850																																		-183.17897	829.25134	2094.29858																						
487	4.860																																		-171.94049	832.79010	2109.09204																						
488	4.870																																		-161.91875	836.63837	2124.71509																						
489	4.880																																		-152.96509	839.43323	2140.34717																						
490	4.890																																		-144.99405	842.75153	2156.05957																						
491	4.900																																		-138.63773	846.12494	2169.92700																						
492	4.910																																		-132.45999	847.94330	2183.71045																						
493	4.920																																		-126.73906	849.73602	2197.12134																						
494	4.930																																		-122.04240	850.83636	2210.26831																						
495	4.940																																		-118.05210	852.08734	2221.13550																						
496	4.950																																		-113.99995	852.67346	2232.02856																						
497	4.960																																		-110.02804	853.65295	2244.33911																						
498	4.970																																		-106.67712	854.38104	2255.40454																						
499	4.980																																		-103.35648	855.74500	2265.88892																						
500	4.990																																		-99.20560	856.55963	2277.87183																						
501	5.000																																		-97.42447	856.73541	2286.96997																						
502	5.010																																		-94.33092	857.67072	2297.41895																						
503	5.020																																		-92.41087	856.90607	2307.79102																						
504	5.030																																		-89.71706	858.74402	2318.12402																						
505	5.040																																		-87.59196	859.02832	2329.46753																						
506	5.050																																		-86.69446	859.04205	2339.07837																						
507	5.060																																		-85.50906	858.88599	2349.24854																						
508	5.070																																		-85.28988	859.28656	2359.92310																						
509	5.080																																		-85.21532	858.61041	2370.71216																						
510	5.090																																		-85.71715	857.95587	2382.87427																						
511	5.100																																		-87.36816	856.76617	2393.31836																						
512	5.110																																		-89.22044	855.38910	2405.10645																						
513	5.120																																		-91.38580	853.43341	2417.06958																						
514	5.130																																		-94.02597	851.33612	2429.39966																						
515	5.140																																		-97.08039	849.03809	2440.27271																						
516	5.150																																		-100.92969	846.23218	2451.75391																						
517	5.160																																		-104.24960	842.29468	2461.63281																						
518	5.170																																		-110.18372	838.86267	2471.52124																						
519	5.180																																		-114.71909	835.41296	2480.28320																						
520	5.190																																		-119.73222	832.05090	2488.08740																						
521	5.200																																		-124.55637	828.22345	2494.22925																						
522	5.210																																		-129.89622	825.35883	2499.68530																						
523	5.220																																		-132.80069	823.79797	2505.01147																						
524	5.230																																		-134.07005	823.31940	2508.94482																						
525	5.240																																		-134.62317	822.75867	2512.15088																						
526	5.250																																		-134.54997	820.92212	2514.38721																						
527	5.260																																		-134.00403	819.09503	2516.71582																						
528	5.270																																		-132.78418	817.03058	2518.73315																						
529	5.280																																		-131.81512	815.30933	2520.81079																						
530	5.290																																		-130.12225	813.67218	2522.75781																						
531	5.300																																		-128.38239	811.87170	2523.47998																						
532	5.310																																		-126.86662	810.79120	2525.29248																						
533	5.320																																		-125.60777	810.51038	2526.05786																						
534	5.330																																		-124.48607	810.18384	2526.18506																						
535	5.340																																		-123.51122	810.96649	2527.18237																						
536	5.350																																		-121.85149	811.43488	2527.34277																						
537	5.360																																		-121.22762	812.14471	2527.68872																						
538	5.370																																		-120.32150	812.21295	2527.08887																						
539	5.380																																		-118.80608	811.83374	2526.81738																						
